<svg width="500" height="484" viewBox="0 0 500 484" fill="none" xmlns="http://www.w3.org/2000/svg">
<mask id="mask0_4_262" style="mask-type:luminance" maskUnits="userSpaceOnUse" x="-1" y="0" width="501" height="484">
<path d="M219.21 165.68C310.74 76.68 360.21 220.23 360.21 220.23C326.61 171.94 219.21 165.68 219.21 165.68ZM294.78 251.77C305.28 239.17 294.78 203.49 294.78 203.49C349.36 220.28 294.78 251.77 294.78 251.77ZM219.21 227.63C236 151 273.8 203.49 273.8 203.49C252.8 203.49 219.21 227.63 219.21 227.63ZM319 316.85C319 316.85 55.44 371.45 208.71 151C208.71 151 166.94 283.25 319.04 316.85H319ZM382.92 274.85C376.67 60.71 229.71 129 229.71 129C297.3 62.92 361.71 113.63 361.71 113.63C495.1 193.78 383 274.87 383 274.87L382.92 274.85ZM270.22 343.53C270.22 343.53 387.22 333.66 420.12 267.71C420.12 267.71 421.29 440.71 270.22 343.53ZM137.32 267.71C110.02 201.79 145.72 136.29 145.72 136.29C198.21 20.82 284.28 83.82 284.28 83.82C160.42 111.1 137.28 267.71 137.28 267.71H137.32ZM141.53 297.6C141.53 297.6 190.62 350.11 242.53 345.06C242.53 345.06 278.02 390.34 334.7 394.55C334.7 394.55 113.82 497.35 141.56 297.6H141.53ZM127.05 274.87L116.33 359.29C-13.85 198.08 116.33 166.21 116.33 166.21C95.33 229.73 127.05 274.87 127.05 274.87ZM114.24 151H92.76C94.38 96.4 160.82 37.62 160.82 37.62C301.88 -71.54 361.72 96.4 361.72 96.4C183 -27.46 114.24 151 114.24 151ZM440.35 262.75C494.35 165.15 383.79 103.99 383.79 103.99C382 78.82 338 19.57 338 19.57C338 19.57 404 4.00001 475.34 104C546.68 204 440.34 262.76 440.34 262.76L440.35 262.75ZM359.64 457.52C359.64 457.52 302.25 452.34 284.28 434.42C284.28 434.42 427.99 419.42 439.64 292.58C439.64 292.58 497.37 251.45 500 236.92C500 236.92 485.38 478.52 359.64 457.52ZM122.91 374.37C145.65 461 257 442.82 257 442.82C275.82 465.16 328.39 478.52 328.39 478.52C70.14 510 122.91 374.37 122.91 374.37ZM71.41 157.14C71.41 157.14 -27.41 203.86 101.56 373C101.56 373 -114.13 233.71 83.14 90.57C83.14 90.57 75.37 107.81 72.55 123.88C70.7357 134.864 70.3525 146.037 71.41 157.12V157.14ZM330.41 299.45C281.83 306.16 229.9 242.51 229.9 242.51C310.31 294.43 363.9 239.16 363.9 239.16C363.9 239.16 378.97 292.76 330.42 299.45H330.41Z" fill="white"/>
</mask>
<g mask="url(#mask0_4_262)">
<rect x="-2027.91" y="-7594.15" width="7366.48" height="11514.4" fill="#22CCD7"/>
</g>
</svg>
